HIERARCHY
ROOT Hips
{
	OFFSET 0.000000 0.000000 0.000000
	CHANNELS 6 Xposition Yposition Zposition Xrotation Yrotation Zrotation
	JOINT LeftUpLeg_virtual
	{
		OFFSET 0.000000 0.000000 0.000000
		CHANNELS 3 Xrotation Yrotation Zrotation
		JOINT LeftUpLeg
		{
			OFFSET 11.394100 -6.187798 -0.413800
			CHANNELS 3 Xrotation Yrotation Zrotation
			JOINT LeftLeg
			{
				OFFSET 0.430247 -32.302673 3.732800
				CHANNELS 3 Xrotation Yrotation Zrotation
				JOINT LeftFoot
				{
					OFFSET -0.430247 -48.264931 -6.423300
					CHANNELS 3 Xrotation Yrotation Zrotation
					JOINT LeftToeBase
					{
						OFFSET 4.230900 -16.068199 23.438400
						CHANNELS 3 Xrotation Yrotation Zrotation
						JOINT LeftToe_End
						{
							OFFSET 4.510700 0.695400 19.974600
							CHANNELS 3 Xrotation Yrotation Zrotation
							End Site
							{
								OFFSET 0 0 0
							}
						}
					}
				}
			}
		}
	}
	JOINT RightUpLeg_virtual
	{
		OFFSET 0.000000 0.000000 0.000000
		CHANNELS 3 Xrotation Yrotation Zrotation
		JOINT RightUpLeg
		{
			OFFSET -11.333700 -6.187798 -0.413800
			CHANNELS 3 Xrotation Yrotation Zrotation
			JOINT RightLeg
			{
				OFFSET -0.430392 -32.302628 3.733000
				CHANNELS 3 Xrotation Yrotation Zrotation
				JOINT RightFoot
				{
					OFFSET 0.430392 -48.264973 -6.423500
					CHANNELS 3 Xrotation Yrotation Zrotation
					JOINT RightToeBase
					{
						OFFSET -4.230900 -16.068199 23.438400
						CHANNELS 3 Xrotation Yrotation Zrotation
						JOINT RightToe_End
						{
							OFFSET -4.510700 0.695400 19.974600
							CHANNELS 3 Xrotation Yrotation Zrotation
							End Site
							{
								OFFSET 0 0 0
							}
						}
					}
				}
			}
		}
	}
	JOINT Spine_virtual
	{
		OFFSET 0.000000 0.000000 0.000000
		CHANNELS 3 Xrotation Yrotation Zrotation
		JOINT Spine
		{
			OFFSET -0.002400 12.777504 0.315300
			CHANNELS 3 Xrotation Yrotation Zrotation
			JOINT Spine1
			{
				OFFSET -0.002067 5.816869 0.032633
				CHANNELS 3 Xrotation Yrotation Zrotation
				JOINT Spine1_split
				{
					OFFSET -0.002067 5.816869 0.032633
					CHANNELS 3 Xrotation Yrotation Zrotation
					JOINT Spine2
					{
						OFFSET -0.002067 5.816869 0.032633
						CHANNELS 3 Xrotation Yrotation Zrotation
						JOINT Neck_virtual
						{
							OFFSET 0.000000 0.000000 0.000000
							CHANNELS 3 Xrotation Yrotation Zrotation
							JOINT Neck
							{
								OFFSET -0.003700 21.199493 -0.826900
								CHANNELS 3 Xrotation Yrotation Zrotation
								JOINT Head
								{
									OFFSET 0.000000 20.442200 4.834800
									CHANNELS 3 Xrotation Yrotation Zrotation
									JOINT HeadTop_End
									{
										OFFSET 0.000000 34.668396 4.968400
										CHANNELS 3 Xrotation Yrotation Zrotation
										End Site
										{
											OFFSET 0 0 0
										}
									}
								}
							}
						}
						JOINT LeftShoulder_virtual
						{
							OFFSET 0.000000 0.000000 0.000000
							CHANNELS 3 Xrotation Yrotation Zrotation
							JOINT LeftShoulder
							{
								OFFSET 3.288150 8.794197 -1.372250
								CHANNELS 3 Xrotation Yrotation Zrotation
								JOINT LeftShoulder_split
								{
									OFFSET 3.288150 8.794197 -1.372250
									CHANNELS 3 Xrotation Yrotation Zrotation
									JOINT LeftArm
									{
										OFFSET 11.953299 -2.279007 -0.146200
										CHANNELS 3 Xrotation Yrotation Zrotation
										JOINT LeftForeArm
										{
											OFFSET 18.448900 0.000000 0.000000
											CHANNELS 3 Xrotation Yrotation Zrotation
											JOINT LeftHand
											{
												OFFSET 29.527798 0.000000 0.000000
												CHANNELS 3 Xrotation Yrotation Zrotation
												End Site
												{
													OFFSET 0 0 0
												}
											}
										}
									}
								}
							}
						}
						JOINT RightShoulder_virtual
						{
							OFFSET 0.000000 0.000000 0.000000
							CHANNELS 3 Xrotation Yrotation Zrotation
							JOINT RightShoulder
							{
								OFFSET -3.249400 8.794197 -1.372250
								CHANNELS 3 Xrotation Yrotation Zrotation
								JOINT RightShoulder_split
								{
									OFFSET -3.249400 8.794197 -1.372250
									CHANNELS 3 Xrotation Yrotation Zrotation
									JOINT RightArm
									{
										OFFSET -11.953299 -2.279007 -0.146200
										CHANNELS 3 Xrotation Yrotation Zrotation
										JOINT RightForeArm
										{
											OFFSET -18.448900 0.000000 0.000000
											CHANNELS 3 Xrotation Yrotation Zrotation
											JOINT RightHand
											{
												OFFSET -29.527802 0.000000 0.000000
												CHANNELS 3 Xrotation Yrotation Zrotation
												End Site
												{
													OFFSET 0 0 0
												}
											}
										}
									}
								}
							}
						}
					}
				}
			}
		}
	}
}
MOTION
Frames: 11
Frame Time: 0.03333333
1.041385 148.616608 18.510387 0.000000 0.000000 0.000000 5.982652 -38.686523 2.755515 -90.254748 -16.887491 18.012763 81.342908 1.261247 4.683381 8.680395 1.765386 -3.114936 -8.233886 2.559907 -2.332006 0.000000 0.000000 0.000000 6.356981 -40.664713 2.411235 -141.090958 -30.083947 -13.730290 105.880431 9.224757 -11.190961 48.371960 6.640503 22.069892 7.679975 4.338274 -3.188393 0.000000 0.000000 0.000000 6.710201 -40.080288 1.866750 32.123315 -5.572836 -7.801854 13.398394 1.024067 -3.695166 0.436451 1.182849 1.072149 0.000000 0.000000 0.000000 13.109868 1.102811 -2.537589 -7.611470 18.361227 -13.719815 -25.917851 11.609687 4.656144 0.000000 0.000000 0.000000 14.318724 1.241055 -3.142035 13.222845 -18.407389 5.412674 1.076327 -3.969554 -3.067817 -59.237397 -9.609700 -5.874305 47.202519 -15.535188 28.809089 0.000000 0.000000 0.000000 15.062223 1.309738 -3.019515 18.909217 26.734337 -7.408759 0.754962 3.594090 1.925068 -35.482751 1.217452 8.118873 -43.239189 48.656379 33.260982 0.000000 0.000000 0.000000 
1.040391 148.581360 18.460697 0.000000 0.000000 0.000000 5.997424 -38.897118 2.866437 -90.193481 -16.760622 18.131622 81.304509 1.189430 4.539692 8.606239 2.039669 -3.224866 -8.224519 2.555069 -2.342379 0.000000 0.000000 0.000000 6.405841 -40.875090 2.533947 -140.654236 -30.191813 -13.657935 105.619498 9.291634 -11.277674 48.146902 6.520493 21.816306 7.643048 4.353281 -3.348501 0.000000 0.000000 0.000000 6.664900 -40.153835 1.939718 32.083543 -5.595793 -7.842547 13.355547 1.043196 -3.685390 0.371869 1.193971 1.093706 0.000000 0.000000 0.000000 13.141434 1.104819 -2.549871 -7.610729 18.358534 -13.721452 -25.792382 11.736890 4.503256 0.000000 0.000000 0.000000 14.285794 1.257396 -3.124752 12.948424 -18.455253 4.701421 1.239527 -4.076331 -3.333922 -58.425097 -9.021692 -5.760531 47.066530 -15.441560 28.564512 0.000000 0.000000 0.000000 15.034655 1.292191 -3.032015 18.414713 27.110066 -6.377490 0.750289 3.694625 1.898858 -34.390494 1.073853 8.061299 -43.363785 48.410041 33.192452 0.000000 0.000000 0.000000 
1.027698 148.533569 18.415966 0.000000 0.000000 0.000000 6.075194 -39.042277 3.019985 -90.072116 -16.659477 18.162219 81.175685 1.091100 4.406164 8.440615 2.365301 -3.331109 -8.249378 2.531561 -2.307865 0.000000 0.000000 0.000000 6.492299 -41.004918 2.683798 -140.222363 -30.253930 -13.582985 105.391759 9.325920 -11.343146 47.880422 6.425535 21.587836 7.610289 4.354399 -3.470029 0.000000 0.000000 0.000000 6.662377 -40.239605 2.060056 31.985817 -5.604946 -7.872555 13.295691 1.054398 -3.673967 0.337659 1.197674 1.119901 0.000000 0.000000 0.000000 13.141435 1.106617 -2.566891 -7.535214 18.349008 -13.741982 -25.622348 11.884619 4.379789 0.000000 0.000000 0.000000 14.241093 1.270958 -3.109149 12.719838 -18.436178 4.090112 1.306962 -4.187232 -3.628674 -57.514516 -8.192793 -5.491004 46.922245 -15.483453 28.387398 0.000000 0.000000 0.000000 14.989369 1.280800 -3.043616 17.957493 27.419200 -5.478849 0.752105 3.763354 1.948125 -33.462565 0.715489 7.883527 -43.454893 48.060783 33.065359 0.000000 0.000000 0.000000 
1.010248 148.481598 18.356138 0.000000 0.000000 0.000000 6.196263 -39.102925 3.208909 -89.898718 -16.600874 18.089522 80.977698 0.978394 4.289221 8.226180 2.730382 -3.423280 -8.321668 2.492453 -2.230466 0.000000 0.000000 0.000000 6.600741 -41.057900 2.863021 -139.814847 -30.275012 -13.547603 105.197508 9.331860 -11.379294 47.579395 6.378279 21.393932 7.572236 4.347790 -3.566899 0.000000 0.000000 0.000000 6.680750 -40.328808 2.226112 31.847922 -5.610783 -7.894836 13.234502 1.055951 -3.663088 0.357264 1.223296 1.178984 0.000000 0.000000 0.000000 13.119074 1.108603 -2.587501 -7.423629 18.330129 -13.764838 -25.416430 12.025365 4.302509 0.000000 0.000000 0.000000 14.187990 1.280318 -3.097822 12.523633 -18.362890 3.528673 1.256905 -4.246682 -3.940090 -56.513132 -7.097779 -5.131816 46.842305 -15.705788 28.331360 0.000000 0.000000 0.000000 14.931068 1.275235 -3.050350 17.542967 27.662130 -4.686502 0.783246 3.793894 2.064670 -32.755357 0.337882 7.656928 -43.422624 47.576601 32.797578 0.000000 0.000000 0.000000 
0.981735 148.434998 18.303703 0.000000 0.000000 0.000000 6.319503 -39.102802 3.423485 -89.668895 -16.575368 17.944816 80.733287 0.868415 4.181696 7.985406 3.130325 -3.482070 -8.426812 2.445271 -2.135279 0.000000 0.000000 0.000000 6.733137 -41.054324 3.077109 -139.440211 -30.262089 -13.586223 105.043904 9.314788 -11.376982 47.265155 6.388929 21.235330 7.498919 4.339080 -3.655346 0.000000 0.000000 0.000000 6.700196 -40.408232 2.417032 31.689018 -5.617909 -7.912873 13.171928 1.053300 -3.658709 0.405236 1.259108 1.201531 0.000000 0.000000 0.000000 13.073052 1.112738 -2.612029 -7.306545 18.311459 -13.789772 -25.193315 12.152616 4.284796 0.000000 0.000000 0.000000 14.122878 1.284044 -3.091820 12.332759 -18.247697 2.942833 1.097295 -4.213267 -4.169529 -55.481562 -5.704346 -4.701129 46.916709 -16.158283 28.446976 0.000000 0.000000 0.000000 14.857492 1.273509 -3.051844 17.168734 27.835002 -3.961969 0.811350 3.774575 2.232565 -32.224112 0.072032 7.420238 -43.266537 46.992641 32.407871 0.000000 0.000000 0.000000 
0.951749 148.398987 18.260870 0.000000 0.000000 0.000000 6.438437 -39.081857 3.660004 -89.395954 -16.556741 17.758763 80.463604 0.765021 4.084661 7.742609 3.535615 -3.511240 -8.537449 2.398176 -2.043733 0.000000 0.000000 0.000000 6.860505 -41.049027 3.315753 -139.112608 -30.219776 -13.710252 104.939286 9.291433 -11.347436 46.967444 6.467081 21.111394 7.374892 4.331360 -3.746608 0.000000 0.000000 0.000000 6.690631 -40.470350 2.612358 31.532139 -5.625555 -7.922405 13.108624 1.048818 -3.656215 0.444484 1.273074 1.212306 0.000000 0.000000 0.000000 13.005589 1.118865 -2.632939 -7.216187 18.293287 -13.811755 -24.964843 12.233449 4.318687 0.000000 0.000000 0.000000 14.040524 1.286631 -3.086768 12.126748 -18.069523 2.274320 0.850229 -4.123300 -4.263784 -54.524400 -4.067895 -4.232661 47.159260 -16.777345 28.722721 0.000000 0.000000 0.000000 14.767200 1.273606 -3.044060 16.827192 27.933785 -3.264551 0.819893 3.681860 2.416680 -31.832435 -0.082847 7.212801 -42.994224 46.324132 31.920162 0.000000 0.000000 0.000000 
0.912506 148.374771 18.243626 0.000000 0.000000 0.000000 6.517759 -39.068440 3.902645 -89.086601 -16.508461 17.588874 80.183054 0.652448 4.001623 7.516044 3.897124 -3.541932 -8.622800 2.352615 -1.965956 0.000000 0.000000 0.000000 6.969046 -41.055147 3.569894 -138.854153 -30.146614 -13.907029 104.872514 9.270917 -11.300356 46.713767 6.603111 21.018423 7.194290 4.327621 -3.835070 0.000000 0.000000 0.000000 6.642646 -40.500402 2.783428 31.387766 -5.631177 -7.922374 13.035655 1.043433 -3.645755 0.474664 1.312396 1.177066 0.000000 0.000000 0.000000 12.916351 1.123971 -2.644604 -7.173338 18.272720 -13.830620 -24.741911 12.264731 4.379913 0.000000 0.000000 0.000000 13.944209 1.287578 -3.076529 11.898257 -17.795824 1.513781 0.521832 -3.994547 -4.277771 -53.701314 -2.216793 -3.745995 47.471724 -17.396878 29.051998 0.000000 0.000000 0.000000 14.656438 1.272424 -3.017170 16.503311 27.922360 -2.572856 0.758862 3.598089 2.542442 -31.467354 -0.236991 7.063921 -42.716509 45.677600 31.472248 0.000000 0.000000 0.000000 
0.865274 148.373688 18.258095 0.000000 0.000000 0.000000 6.554373 -39.092021 4.135888 -88.739423 -16.407108 17.481413 79.898399 0.517514 3.939639 7.310173 4.180575 -3.607083 -8.661278 2.309815 -1.906900 0.000000 0.000000 0.000000 7.036062 -41.104280 3.812480 -138.656474 -30.059143 -14.126692 104.838213 9.260920 -11.250228 46.512308 6.764112 20.935100 6.982056 4.324773 -3.897711 0.000000 0.000000 0.000000 6.574662 -40.503333 2.916083 31.262964 -5.628004 -7.912054 12.944977 1.042742 -3.619374 0.470774 1.358211 1.094589 0.000000 0.000000 0.000000 12.795631 1.130297 -2.639495 -7.171444 18.248421 -13.861743 -24.543166 12.230944 4.444391 0.000000 0.000000 0.000000 13.836152 1.291800 -3.057088 11.652376 -17.393999 0.692988 0.179105 -3.906722 -4.180504 -53.050714 -0.259554 -3.271593 47.753787 -17.870729 29.331137 0.000000 0.000000 0.000000 14.530273 1.277504 -2.969663 16.203068 27.788594 -1.900106 0.605232 3.548841 2.613783 -31.093384 -0.581073 6.985330 -42.558198 45.173741 31.218998 0.000000 0.000000 0.000000 
0.815263 148.386948 18.294588 0.000000 0.000000 0.000000 6.560886 -39.146290 4.340531 -88.369705 -16.249896 17.443009 79.616701 0.371307 3.903445 7.115083 4.377263 -3.704028 -8.660489 2.265809 -1.849487 0.000000 0.000000 0.000000 7.050944 -41.174648 4.012215 -138.497849 -29.973295 -14.310813 104.826417 9.257875 -11.205829 46.351986 6.899557 20.834775 6.800460 4.320396 -3.917049 0.000000 0.000000 0.000000 6.506965 -40.463721 3.019030 31.159244 -5.618138 -7.894170 12.836071 1.048277 -3.577115 0.447050 1.366712 1.082293 0.000000 0.000000 0.000000 12.665598 1.142131 -2.612201 -7.197923 18.199705 -13.897827 -24.379353 12.140207 4.475572 0.000000 0.000000 0.000000 13.712969 1.305227 -3.027581 11.404968 -16.834521 -0.102792 -0.157470 -3.896065 -4.036822 -52.581586 1.709655 -2.817231 47.875883 -18.071036 29.458606 0.000000 0.000000 0.000000 14.388792 1.291700 -2.900906 15.924871 27.516728 -1.274240 0.422195 3.594055 2.583821 -30.750543 -1.301547 6.910993 -42.632934 44.886111 31.282215 0.000000 0.000000 0.000000 
0.761954 148.413895 18.333399 0.000000 0.000000 0.000000 6.539628 -39.219797 4.496561 -87.969421 -16.069820 17.472486 79.345181 0.248054 3.890485 6.876252 4.512646 -3.797131 -8.643053 2.217117 -1.781648 0.000000 0.000000 0.000000 7.011625 -41.237417 4.145449 -138.340373 -29.916826 -14.401621 104.809396 9.255002 -11.165935 46.216697 6.968788 20.713059 6.663979 4.311189 -3.884346 0.000000 0.000000 0.000000 6.484249 -40.404011 3.114594 31.076394 -5.597346 -7.880834 12.705408 1.063481 -3.530673 0.419772 1.363288 1.098432 0.000000 0.000000 0.000000 12.536971 1.162498 -2.572421 -7.225682 18.120043 -13.930218 -24.263733 12.032320 4.443318 0.000000 0.000000 0.000000 13.583730 1.330377 -2.995131 11.181760 -16.118521 -0.781371 -0.418611 -3.964789 -3.855992 -52.287622 3.627816 -2.373316 47.845277 -18.048211 29.459658 0.000000 0.000000 0.000000 14.237662 1.316676 -2.821057 15.675610 27.088725 -0.757243 0.212307 3.661223 2.547962 -30.463019 -2.478534 6.762170 -43.020739 44.886152 31.738069 0.000000 0.000000 0.000000 
0.701238 148.448090 18.354614 0.000000 0.000000 0.000000 6.492102 -39.298262 4.587445 -87.552097 -15.902728 17.538077 79.086870 0.172788 3.905551 6.548390 4.623203 -3.859292 -8.649684 2.167158 -1.702373 0.000000 0.000000 0.000000 6.941742 -41.287780 4.211630 -138.161613 -29.908995 -14.358275 104.770642 9.254946 -11.137055 46.098511 6.967850 20.581100 6.564018 4.297064 -3.809356 0.000000 0.000000 0.000000 6.518289 -40.346515 3.213744 31.004155 -5.557240 -7.877597 12.554763 1.092218 -3.496572 0.443556 1.304256 1.126495 0.000000 0.000000 0.000000 12.420090 1.195699 -2.536635 -7.241554 18.016666 -13.958322 -24.213166 11.948563 4.349955 0.000000 0.000000 0.000000 13.455125 1.368742 -2.972609 11.003007 -15.280820 -1.257565 -0.599806 -4.150361 -3.707439 -52.165833 5.444217 -1.877431 47.743866 -18.009522 29.460180 0.000000 0.000000 0.000000 14.085327 1.354915 -2.756464 15.471415 26.527551 -0.411472 0.012034 3.730357 2.536548 -30.262434 -4.113051 6.409295 -43.759813 45.196198 32.611729 0.000000 0.000000 0.000000 
